<svg width="16" height="16" viewBox="0 0 16 16" fill="none" xmlns="http://www.w3.org/2000/svg">
<rect width="16" height="16" fill="#1E1E1E"/>
<g id="Menu">
<path d="M-116 -255C-116 -256.105 -115.105 -257 -114 -257H1310C1311.1 -257 1312 -256.105 1312 -255V931C1312 932.105 1311.1 933 1310 933H-114C-115.105 933 -116 932.105 -116 931V-255Z" fill="#444444"/>
<path d="M-114 -257V-256H1310V-257V-258H-114V-257ZM1312 -255H1311V931H1312H1313V-255H1312ZM1310 933V932H-114V933V934H1310V933ZM-116 931H-115V-255H-116H-117V931H-116ZM-114 933V932C-114.552 932 -115 931.552 -115 931H-116H-117C-117 932.657 -115.657 934 -114 934V933ZM1312 931H1311C1311 931.552 1310.55 932 1310 932V933V934C1311.66 934 1313 932.657 1313 931H1312ZM1310 -257V-256C1310.55 -256 1311 -255.552 1311 -255H1312H1313C1313 -256.657 1311.66 -258 1310 -258V-257ZM-114 -257V-258C-115.657 -258 -117 -256.657 -117 -255H-116H-115C-115 -255.552 -114.552 -256 -114 -256V-257Z" fill="white" fill-opacity="0.1"/>
<g id="AllinPay / Sidebar Navigation">
<g id="Active=Dashboard">
<rect width="188" height="990" transform="translate(-16 -157)" fill="#14254F"/>
<g id="Menu &#194;&#183; &#229;&#149;&#134;&#230;&#136;&#182;&#229;&#133;&#165;&#231;&#182;&#178;">
<rect width="188" height="42" transform="translate(-16 -13)" fill="#14254F"/>
<g id="Icon &#194;&#183; Merchant">
<rect id="Rectangle" x="2" y="1" width="12" height="4" rx="1" fill="#9FB2D0"/>
<rect id="Rectangle_2" x="1.65" y="6.65" width="12.7" height="7.7" rx="1.35" stroke="#9FB2D0" stroke-width="1.3"/>
</g>
</g>
</g>
</g>
</g>
</svg>
